<?xml version="1.0" encoding="UTF-8"?>
<svg xmlns="http://www.w3.org/2000/svg" xmlns:xlink="http://www.w3.org/1999/xlink" viewBox="0 0 631 651">
  <defs>
    <style>
      .cls-1, .cls-2, .cls-3 {
        fill: #23033b;
      }

      .cls-4 {
        stroke: url(#linear-gradient-11);
        stroke-opacity: .2;
      }

      .cls-4, .cls-5, .cls-6, .cls-7, .cls-8, .cls-9, .cls-10, .cls-11, .cls-12, .cls-13, .cls-14, .cls-15, .cls-16 {
        fill: none;
      }

      .cls-2 {
        stroke-width: 2.04px;
      }

      .cls-2, .cls-16 {
        stroke: #23033b;
      }

      .cls-5 {
        stroke: url(#linear-gradient-7);
      }

      .cls-5, .cls-6, .cls-7, .cls-8, .cls-9, .cls-11, .cls-12, .cls-13, .cls-14, .cls-15 {
        stroke-opacity: .4;
      }

      .cls-6 {
        stroke: url(#linear-gradient-10);
      }

      .cls-17 {
        fill: #7125b3;
      }

      .cls-18 {
        fill: rgba(86, 203, 165, .3);
      }

      .cls-19 {
        fill: #41a9d9;
      }

      .cls-7 {
        stroke: url(#linear-gradient-3);
      }

      .cls-8 {
        stroke: url(#linear-gradient-5);
      }

      .cls-20 {
        fill: #5cedbd;
      }

      .cls-9 {
        stroke: url(#linear-gradient-8);
      }

      .cls-11 {
        stroke: url(#linear-gradient-2);
      }

      .cls-12 {
        stroke: url(#linear-gradient-9);
      }

      .cls-13 {
        stroke: url(#linear-gradient);
      }

      .cls-21 {
        opacity: .3;
      }

      .cls-14 {
        stroke: url(#linear-gradient-6);
      }

      .cls-15 {
        stroke: url(#linear-gradient-4);
      }

      .cls-22 {
        fill: #fafafc;
      }

      .cls-23 {
        fill: #8e1ebf;
      }

      .cls-24 {
        fill: #f4b87f;
      }

      .cls-3 {
        fill-rule: evenodd;
      }

      .cls-16 {
        stroke-linecap: round;
        stroke-width: 4.48px;
      }

      .cls-25 {
        fill: rgba(86, 203, 165, .18);
      }

      .cls-26 {
        fill: #2562ba;
      }

      .cls-27 {
        clip-path: url(#clippath);
      }

      .cls-28 {
        fill: #b89fb2;
      }
    </style>
    <clipPath id="clippath">
      <ellipse class="cls-10" cx="315.5" cy="325.97" rx="315.5" ry="325.03"/>
    </clipPath>
    <linearGradient id="linear-gradient" x1="311.63" y1="443.98" x2="312.15" y2="-438.58" gradientTransform="translate(-203.34 370.62) scale(1 -1)" gradientUnits="userSpaceOnUse">
      <stop offset="0" stop-color="#8dc8b0" stop-opacity="0"/>
      <stop offset=".14" stop-color="#8dc8b0" stop-opacity=".3"/>
      <stop offset=".49" stop-color="#8dc8b0"/>
      <stop offset=".87" stop-color="#8dc8b0" stop-opacity=".3"/>
      <stop offset=".99" stop-color="#8dc8b0" stop-opacity="0"/>
    </linearGradient>
    <linearGradient id="linear-gradient-2" x1="451.17" y1="443.98" x2="451.7" y2="-438.58" xlink:href="#linear-gradient"/>
    <linearGradient id="linear-gradient-3" x1="590.72" y1="443.98" x2="591.24" y2="-438.58" xlink:href="#linear-gradient"/>
    <linearGradient id="linear-gradient-4" x1="730.27" y1="443.98" x2="730.79" y2="-438.58" xlink:href="#linear-gradient"/>
    <linearGradient id="linear-gradient-5" x1="-233.88" y1="-214.03" x2="1271.05" y2="-212.52" xlink:href="#linear-gradient"/>
    <linearGradient id="linear-gradient-6" x1="-233.88" y1="-125.19" x2="1271.05" y2="-123.68" xlink:href="#linear-gradient"/>
    <linearGradient id="linear-gradient-7" x1="-233.88" y1="-36.36" x2="1271.05" y2="-34.84" xlink:href="#linear-gradient"/>
    <linearGradient id="linear-gradient-8" x1="-233.88" y1="52.48" x2="1271.05" y2="54" xlink:href="#linear-gradient"/>
    <linearGradient id="linear-gradient-9" x1="-233.88" y1="141.32" x2="1271.05" y2="142.84" xlink:href="#linear-gradient"/>
    <linearGradient id="linear-gradient-10" x1="-233.88" y1="230.16" x2="1271.05" y2="231.68" xlink:href="#linear-gradient"/>
    <linearGradient id="linear-gradient-11" x1="-233.88" y1="319" x2="1271.05" y2="320.52" xlink:href="#linear-gradient"/>
  </defs>
  <g id="Layer_2">
    <g class="cls-27">
      <g>
        <path class="cls-13" d="M108.54-85.6v894.8"/>
        <path class="cls-11" d="M248.09-85.6v894.8"/>
        <path class="cls-7" d="M387.64-85.6v894.8"/>
        <path class="cls-15" d="M527.19-85.6v894.8"/>
        <path class="cls-8" d="M-458.07,583.9h1525.79"/>
        <path class="cls-14" d="M-458.07,495.06h1525.79"/>
        <path class="cls-5" d="M-458.07,406.22h1525.79"/>
        <path class="cls-9" d="M-458.07,317.38h1525.79"/>
        <path class="cls-12" d="M-458.07,228.54h1525.79"/>
        <path class="cls-6" d="M-458.07,139.71h1525.79"/>
        <path class="cls-4" d="M-458.07,50.87h1525.79"/>
        <g class="cls-21">
          <path class="cls-18" d="M108.54,127.51l-.18.55v15.87l.18.16,8.35-4.36-8.35-12.22Z"/>
          <path class="cls-18" d="M108.54,127.51l-8.35,12.22,8.35,4.36v-16.58Z"/>
          <path class="cls-18" d="M108.54,145.48l-.1.11v5.65l.1.27,8.35-10.38-8.35,4.35Z"/>
          <path class="cls-18" d="M108.54,151.51v-6.03l-8.35-4.35,8.35,10.38Z"/>
          <path class="cls-18" d="M108.54,144.09l8.35-4.35-8.35-3.35v7.7Z"/>
          <path class="cls-18" d="M100.19,139.73l8.35,4.35v-7.7l-8.35,3.35Z"/>
        </g>
        <path class="cls-18" d="M108.54,38.87l-.18.55v15.87l.18.16,8.35-4.35-8.35-12.22Z"/>
        <path class="cls-18" d="M108.54,38.87l-8.35,12.22,8.35,4.35v-16.58Z"/>
        <path class="cls-18" d="M108.54,56.84l-.1.11v5.65l.1.26,8.35-10.38-8.35,4.35Z"/>
        <path class="cls-18" d="M108.54,62.87v-6.03l-8.35-4.35,8.35,10.38Z"/>
        <path class="cls-18" d="M108.54,55.44l8.35-4.35-8.35-3.35v7.7Z"/>
        <path class="cls-18" d="M100.19,51.09l8.35,4.35v-7.7l-8.35,3.35Z"/>
        <path class="cls-18" d="M108.54,216.54l-.18.55v15.87l.18.16,8.35-4.36-8.35-12.22Z"/>
        <path class="cls-18" d="M108.54,216.54l-8.35,12.22,8.35,4.36v-16.58Z"/>
        <path class="cls-18" d="M108.54,234.52l-.1.11v5.65l.1.27,8.35-10.38-8.35,4.35Z"/>
        <path class="cls-18" d="M108.54,240.55v-6.03l-8.35-4.35,8.35,10.38Z"/>
        <path class="cls-18" d="M108.54,233.12l8.35-4.36-8.35-3.35v7.7Z"/>
        <path class="cls-18" d="M100.19,228.77l8.35,4.36v-7.7l-8.35,3.35Z"/>
        <path class="cls-18" d="M108.54,305.38l-.18.55v15.87l.18.16,8.35-4.36-8.35-12.22Z"/>
        <path class="cls-18" d="M108.54,305.38l-8.35,12.22,8.35,4.36v-16.58Z"/>
        <path class="cls-18" d="M108.54,323.36l-.1.11v5.65l.1.27,8.35-10.38-8.35,4.35Z"/>
        <path class="cls-18" d="M108.54,329.39v-6.03l-8.35-4.35,8.35,10.38Z"/>
        <path class="cls-18" d="M108.54,321.96l8.35-4.36-8.35-3.35v7.7Z"/>
        <path class="cls-18" d="M100.19,317.61l8.35,4.36v-7.7l-8.35,3.35Z"/>
        <path class="cls-18" d="M108.54,394.22l-.18.55v15.87l.18.16,8.35-4.35-8.35-12.23Z"/>
        <path class="cls-18" d="M108.54,394.22l-8.35,12.23,8.35,4.35v-16.58Z"/>
        <path class="cls-18" d="M108.54,412.19l-.1.11v5.65l.1.27,8.35-10.38-8.35,4.35Z"/>
        <path class="cls-18" d="M108.54,418.23v-6.03l-8.35-4.35,8.35,10.38Z"/>
        <path class="cls-18" d="M108.54,410.8l8.35-4.36-8.35-3.35v7.7Z"/>
        <path class="cls-18" d="M100.19,406.44l8.35,4.36v-7.7l-8.35,3.35Z"/>
        <g class="cls-21">
          <path class="cls-18" d="M108.54,483.06l-.18.55v15.87l.18.16,8.35-4.36-8.35-12.22Z"/>
          <path class="cls-18" d="M108.54,483.06l-8.35,12.22,8.35,4.36v-16.58Z"/>
          <path class="cls-18" d="M108.54,501.03l-.1.11v5.65l.1.27,8.35-10.38-8.35,4.35Z"/>
          <path class="cls-18" d="M108.54,507.06v-6.03l-8.35-4.35,8.35,10.38Z"/>
          <path class="cls-18" d="M108.54,499.64l8.35-4.36-8.35-3.35v7.7Z"/>
          <path class="cls-18" d="M100.19,495.28l8.35,4.36v-7.7l-8.35,3.35Z"/>
        </g>
        <path class="cls-18" d="M108.54,572.09l-.18.55v15.87l.18.16,8.35-4.36-8.35-12.22Z"/>
        <path class="cls-18" d="M108.54,572.09l-8.35,12.22,8.35,4.36v-16.58Z"/>
        <path class="cls-18" d="M108.54,590.07l-.1.11v5.65l.1.26,8.35-10.38-8.35,4.35Z"/>
        <path class="cls-18" d="M108.54,596.1v-6.03l-8.35-4.35,8.35,10.38Z"/>
        <path class="cls-18" d="M108.54,588.67l8.35-4.36-8.35-3.35v7.7Z"/>
        <path class="cls-18" d="M100.19,584.32l8.35,4.36v-7.7l-8.35,3.35Z"/>
        <path class="cls-18" d="M387.71,305.38l-.18.55v15.87l.18.16,8.35-4.36-8.35-12.22Z"/>
        <path class="cls-18" d="M387.71,305.38l-8.35,12.22,8.35,4.36v-16.58Z"/>
        <path class="cls-18" d="M387.71,323.36l-.1.11v5.65l.1.27,8.35-10.38-8.35,4.35Z"/>
        <path class="cls-18" d="M387.71,329.39v-6.03l-8.35-4.35,8.35,10.38Z"/>
        <path class="cls-18" d="M387.71,321.96l8.35-4.36-8.35-3.35v7.7Z"/>
        <path class="cls-18" d="M379.36,317.61l8.35,4.36v-7.7l-8.35,3.35Z"/>
        <g class="cls-21">
          <path class="cls-18" d="M387.71,127.51l-.18.55v15.87l.18.16,8.35-4.36-8.35-12.22Z"/>
          <path class="cls-18" d="M387.71,127.51l-8.35,12.22,8.35,4.36v-16.58Z"/>
          <path class="cls-18" d="M387.71,145.48l-.1.11v5.65l.1.27,8.35-10.38-8.35,4.35Z"/>
          <path class="cls-18" d="M387.71,151.51v-6.03l-8.35-4.35,8.35,10.38Z"/>
          <path class="cls-18" d="M387.71,144.09l8.35-4.35-8.35-3.35v7.7Z"/>
          <path class="cls-18" d="M379.36,139.73l8.35,4.35v-7.7l-8.35,3.35Z"/>
        </g>
        <path class="cls-18" d="M387.71,38.87l-.18.55v15.87l.18.16,8.35-4.35-8.35-12.22Z"/>
        <path class="cls-18" d="M387.71,38.87l-8.35,12.22,8.35,4.35v-16.58Z"/>
        <path class="cls-18" d="M387.71,56.84l-.1.11v5.65l.1.26,8.35-10.38-8.35,4.35Z"/>
        <path class="cls-18" d="M387.71,62.87v-6.03l-8.35-4.35,8.35,10.38Z"/>
        <path class="cls-18" d="M387.71,55.44l8.35-4.35-8.35-3.35v7.7Z"/>
        <path class="cls-18" d="M379.36,51.09l8.35,4.35v-7.7l-8.35,3.35Z"/>
        <path class="cls-18" d="M387.71,216.54l-.18.55v15.87l.18.16,8.35-4.36-8.35-12.22Z"/>
        <path class="cls-18" d="M387.71,216.54l-8.35,12.22,8.35,4.36v-16.58Z"/>
        <path class="cls-18" d="M387.71,234.52l-.1.11v5.65l.1.27,8.35-10.38-8.35,4.35Z"/>
        <path class="cls-18" d="M387.71,240.55v-6.03l-8.35-4.35,8.35,10.38Z"/>
        <path class="cls-18" d="M387.71,233.12l8.35-4.36-8.35-3.35v7.7Z"/>
        <path class="cls-18" d="M379.36,228.77l8.35,4.36v-7.7l-8.35,3.35Z"/>
        <path class="cls-18" d="M387.71,394.22l-.18.55v15.87l.18.16,8.35-4.35-8.35-12.23Z"/>
        <path class="cls-18" d="M387.71,394.22l-8.35,12.23,8.35,4.35v-16.58Z"/>
        <path class="cls-18" d="M387.71,412.19l-.1.11v5.65l.1.27,8.35-10.38-8.35,4.35Z"/>
        <path class="cls-18" d="M387.71,418.23v-6.03l-8.35-4.35,8.35,10.38Z"/>
        <path class="cls-18" d="M387.71,410.8l8.35-4.36-8.35-3.35v7.7Z"/>
        <path class="cls-18" d="M379.36,406.44l8.35,4.36v-7.7l-8.35,3.35Z"/>
        <path class="cls-18" d="M387.71,483.06l-.18.55v15.87l.18.16,8.35-4.36-8.35-12.22Z"/>
        <path class="cls-18" d="M387.71,483.06l-8.35,12.22,8.35,4.36v-16.58Z"/>
        <path class="cls-18" d="M387.71,501.03l-.1.11v5.65l.1.27,8.35-10.38-8.35,4.35Z"/>
        <path class="cls-18" d="M387.71,507.06v-6.03l-8.35-4.35,8.35,10.38Z"/>
        <path class="cls-18" d="M387.71,499.64l8.35-4.36-8.35-3.35v7.7Z"/>
        <path class="cls-18" d="M379.36,495.28l8.35,4.36v-7.7l-8.35,3.35Z"/>
        <path class="cls-18" d="M387.71,572.09l-.18.55v15.87l.18.16,8.35-4.36-8.35-12.22Z"/>
        <path class="cls-18" d="M387.71,572.09l-8.35,12.22,8.35,4.36v-16.58Z"/>
        <path class="cls-18" d="M387.71,590.07l-.1.11v5.65l.1.26,8.35-10.38-8.35,4.35Z"/>
        <path class="cls-18" d="M387.71,596.1v-6.03l-8.35-4.35,8.35,10.38Z"/>
        <path class="cls-18" d="M387.71,588.67l8.35-4.36-8.35-3.35v7.7Z"/>
        <path class="cls-18" d="M379.36,584.32l8.35,4.36v-7.7l-8.35,3.35Z"/>
        <path class="cls-25" d="M248.16,305.38l-.18.55v15.87l.18.16,8.35-4.36-8.35-12.22Z"/>
        <path class="cls-25" d="M248.16,305.38l-8.35,12.22,8.35,4.36v-16.58Z"/>
        <path class="cls-25" d="M248.16,323.36l-.1.11v5.65l.1.27,8.35-10.38-8.35,4.35Z"/>
        <path class="cls-25" d="M248.16,329.39v-6.03l-8.35-4.35,8.35,10.38Z"/>
        <path class="cls-25" d="M248.16,321.96l8.35-4.36-8.35-3.35v7.7Z"/>
        <path class="cls-25" d="M239.81,317.61l8.35,4.36v-7.7l-8.35,3.35Z"/>
        <path class="cls-25" d="M527.23,305.38l-.18.55v15.87l.18.16,8.35-4.36-8.35-12.22Z"/>
        <path class="cls-25" d="M527.23,305.38l-8.35,12.22,8.35,4.36v-16.58Z"/>
        <path class="cls-25" d="M527.24,323.36l-.1.11v5.65l.1.27,8.35-10.38-8.35,4.35Z"/>
        <path class="cls-25" d="M527.23,329.39v-6.03l-8.35-4.35,8.35,10.38Z"/>
        <path class="cls-25" d="M527.23,321.96l8.35-4.36-8.35-3.35v7.7Z"/>
        <path class="cls-25" d="M518.89,317.61l8.35,4.36v-7.7l-8.35,3.35Z"/>
        <path class="cls-25" d="M248.16,127.51l-.18.55v15.87l.18.16,8.35-4.36-8.35-12.22Z"/>
        <path class="cls-25" d="M248.16,127.51l-8.35,12.22,8.35,4.36v-16.58Z"/>
        <path class="cls-25" d="M248.16,145.48l-.1.11v5.65l.1.27,8.35-10.38-8.35,4.35Z"/>
        <path class="cls-25" d="M248.16,151.51v-6.03l-8.35-4.35,8.35,10.38Z"/>
        <path class="cls-25" d="M248.16,144.09l8.35-4.35-8.35-3.35v7.7Z"/>
        <path class="cls-25" d="M239.81,139.73l8.35,4.35v-7.7l-8.35,3.35Z"/>
        <g class="cls-21">
          <path class="cls-25" d="M248.16,38.87l-.18.55v15.87l.18.16,8.35-4.35-8.35-12.22Z"/>
          <path class="cls-25" d="M248.16,38.87l-8.35,12.22,8.35,4.35v-16.58Z"/>
          <path class="cls-25" d="M248.16,56.84l-.1.11v5.65l.1.26,8.35-10.38-8.35,4.35Z"/>
          <path class="cls-25" d="M248.16,62.87v-6.03l-8.35-4.35,8.35,10.38Z"/>
          <path class="cls-25" d="M248.16,55.44l8.35-4.35-8.35-3.35v7.7Z"/>
          <path class="cls-25" d="M239.81,51.09l8.35,4.35v-7.7l-8.35,3.35Z"/>
        </g>
        <path class="cls-25" d="M248.16,216.54l-.18.55v15.87l.18.16,8.35-4.36-8.35-12.22Z"/>
        <path class="cls-25" d="M248.16,216.54l-8.35,12.22,8.35,4.36v-16.58Z"/>
        <path class="cls-25" d="M248.16,234.52l-.1.11v5.65l.1.27,8.35-10.38-8.35,4.35Z"/>
        <path class="cls-25" d="M248.16,240.55v-6.03l-8.35-4.35,8.35,10.38Z"/>
        <path class="cls-25" d="M248.16,233.12l8.35-4.36-8.35-3.35v7.7Z"/>
        <path class="cls-25" d="M239.81,228.77l8.35,4.36v-7.7l-8.35,3.35Z"/>
        <path class="cls-25" d="M248.16,394.22l-.18.55v15.87l.18.16,8.35-4.35-8.35-12.23Z"/>
        <path class="cls-25" d="M248.16,394.22l-8.35,12.23,8.35,4.35v-16.58Z"/>
        <path class="cls-25" d="M248.16,412.19l-.1.11v5.65l.1.27,8.35-10.38-8.35,4.35Z"/>
        <path class="cls-25" d="M248.16,418.23v-6.03l-8.35-4.35,8.35,10.38Z"/>
        <path class="cls-25" d="M248.16,410.8l8.35-4.36-8.35-3.35v7.7Z"/>
        <path class="cls-25" d="M239.81,406.44l8.35,4.36v-7.7l-8.35,3.35Z"/>
        <path class="cls-25" d="M248.16,483.06l-.18.55v15.87l.18.16,8.35-4.36-8.35-12.22Z"/>
        <path class="cls-25" d="M248.16,483.06l-8.35,12.22,8.35,4.36v-16.58Z"/>
        <path class="cls-25" d="M248.16,501.03l-.1.11v5.65l.1.27,8.35-10.38-8.35,4.35Z"/>
        <path class="cls-25" d="M248.16,507.06v-6.03l-8.35-4.35,8.35,10.38Z"/>
        <path class="cls-25" d="M248.16,499.64l8.35-4.36-8.35-3.35v7.7Z"/>
        <path class="cls-25" d="M239.81,495.28l8.35,4.36v-7.7l-8.35,3.35Z"/>
        <g class="cls-21">
          <path class="cls-25" d="M248.16,572.09l-.18.55v15.87l.18.16,8.35-4.36-8.35-12.22Z"/>
          <path class="cls-25" d="M248.16,572.09l-8.35,12.22,8.35,4.36v-16.58Z"/>
          <path class="cls-25" d="M248.16,590.07l-.1.11v5.65l.1.26,8.35-10.38-8.35,4.35Z"/>
          <path class="cls-25" d="M248.16,596.1v-6.03l-8.35-4.35,8.35,10.38Z"/>
          <path class="cls-25" d="M248.16,588.67l8.35-4.36-8.35-3.35v7.7Z"/>
          <path class="cls-25" d="M239.81,584.32l8.35,4.36v-7.7l-8.35,3.35Z"/>
        </g>
        <path class="cls-25" d="M527.23,127.51l-.18.55v15.87l.18.16,8.35-4.36-8.35-12.22Z"/>
        <path class="cls-25" d="M527.23,127.51l-8.35,12.22,8.35,4.36v-16.58Z"/>
        <path class="cls-25" d="M527.24,145.48l-.1.11v5.65l.1.27,8.35-10.38-8.35,4.35Z"/>
        <path class="cls-25" d="M527.23,151.51v-6.03l-8.35-4.35,8.35,10.38Z"/>
        <path class="cls-25" d="M527.23,144.09l8.35-4.35-8.35-3.35v7.7Z"/>
        <path class="cls-25" d="M518.89,139.73l8.35,4.35v-7.7l-8.35,3.35Z"/>
        <g class="cls-21">
          <path class="cls-25" d="M527.23,38.87l-.18.55v15.87l.18.16,8.35-4.35-8.35-12.22Z"/>
          <path class="cls-25" d="M527.23,38.87l-8.35,12.22,8.35,4.35v-16.58Z"/>
          <path class="cls-25" d="M527.24,56.84l-.1.11v5.65l.1.26,8.35-10.38-8.35,4.35Z"/>
          <path class="cls-25" d="M527.23,62.87v-6.03l-8.35-4.35,8.35,10.38Z"/>
          <path class="cls-25" d="M527.23,55.44l8.35-4.35-8.35-3.35v7.7Z"/>
          <path class="cls-25" d="M518.89,51.09l8.35,4.35v-7.7l-8.35,3.35Z"/>
        </g>
        <g class="cls-21">
          <path class="cls-25" d="M527.23,216.54l-.18.55v15.87l.18.16,8.35-4.36-8.35-12.22Z"/>
          <path class="cls-25" d="M527.23,216.54l-8.35,12.22,8.35,4.36v-16.58Z"/>
          <path class="cls-25" d="M527.24,234.52l-.1.11v5.65l.1.27,8.35-10.38-8.35,4.35Z"/>
          <path class="cls-25" d="M527.23,240.55v-6.03l-8.35-4.35,8.35,10.38Z"/>
          <path class="cls-25" d="M527.23,233.12l8.35-4.36-8.35-3.35v7.7Z"/>
          <path class="cls-25" d="M518.89,228.77l8.35,4.36v-7.7l-8.35,3.35Z"/>
        </g>
        <g class="cls-21">
          <path class="cls-25" d="M527.23,394.22l-.18.55v15.87l.18.16,8.35-4.35-8.35-12.23Z"/>
          <path class="cls-25" d="M527.23,394.22l-8.35,12.23,8.35,4.35v-16.58Z"/>
          <path class="cls-25" d="M527.24,412.19l-.1.11v5.65l.1.27,8.35-10.38-8.35,4.35Z"/>
          <path class="cls-25" d="M527.23,418.23v-6.03l-8.35-4.35,8.35,10.38Z"/>
          <path class="cls-25" d="M527.23,410.8l8.35-4.36-8.35-3.35v7.7Z"/>
          <path class="cls-25" d="M518.89,406.44l8.35,4.36v-7.7l-8.35,3.35Z"/>
        </g>
        <path class="cls-25" d="M527.23,483.06l-.18.55v15.87l.18.16,8.35-4.36-8.35-12.22Z"/>
        <path class="cls-25" d="M527.23,483.06l-8.35,12.22,8.35,4.36v-16.58Z"/>
        <path class="cls-25" d="M527.24,501.03l-.1.11v5.65l.1.27,8.35-10.38-8.35,4.35Z"/>
        <path class="cls-25" d="M527.23,507.06v-6.03l-8.35-4.35,8.35,10.38Z"/>
        <path class="cls-25" d="M527.23,499.64l8.35-4.36-8.35-3.35v7.7Z"/>
        <path class="cls-25" d="M518.89,495.28l8.35,4.36v-7.7l-8.35,3.35Z"/>
        <g class="cls-21">
          <path class="cls-25" d="M527.23,572.09l-.18.55v15.87l.18.16,8.35-4.36-8.35-12.22Z"/>
          <path class="cls-25" d="M527.23,572.09l-8.35,12.22,8.35,4.36v-16.58Z"/>
          <path class="cls-25" d="M527.24,590.07l-.1.11v5.65l.1.26,8.35-10.38-8.35,4.35Z"/>
          <path class="cls-25" d="M527.23,596.1v-6.03l-8.35-4.35,8.35,10.38Z"/>
          <path class="cls-25" d="M527.23,588.67l8.35-4.36-8.35-3.35v7.7Z"/>
          <path class="cls-25" d="M518.89,584.32l8.35,4.36v-7.7l-8.35,3.35Z"/>
        </g>
      </g>
    </g>
  </g>
  <g id="Layer_1">
    <path class="cls-17" d="M318.31,406.22v-42.81l-53.68-28.73c-.36-.2-.74.24-.49.58l54.18,70.96h-.02Z"/>
    <path class="cls-1" d="M318.31,363.41v42.81l54.25-70.82c.27-.36-.14-.85-.53-.64l-53.71,28.65h-.02Z"/>
    <path class="cls-3" d="M359.25,341.57l12.78-6.81c.4-.21.82.27.53.64l-54.25,70.82-54.18-70.96c-.26-.33.12-.78.49-.58l12.91,6.92,40.77,53.4,40.92-53.43h.03Z"/>
    <path class="cls-24" d="M318.31,245.28v42.81l-53.68,28.73c-.36.2-.74-.24-.49-.58l54.18-70.96h-.02Z"/>
    <path class="cls-23" d="M318.31,288.08v-42.81l54.25,70.82c.27.36-.14.85-.53.64l-53.71-28.65h-.02Z"/>
    <path class="cls-3" d="M359.25,309.92l12.78,6.81c.4.21.82-.27.53-.64l-54.25-70.82-54.18,70.96c-.26.33.12.78.49.58l12.91-6.92,40.77-53.42,40.92,53.43.03.02Z"/>
    <path class="cls-3" d="M197.72,392.59s-5.29-8-7.66-13.62c-3.09-7.28-5.11-19.58-5.11-19.58,0,0,5.96,11.92,11.92,17.88,1.17-3.89,1.98-7.25,2.75-10.47.93-3.85,1.81-7.51,3.21-11.66.23.82.49,1.78.78,2.84,1.81,6.69,4.82,17.76,10.29,26.97,6.87,11.54,15.32,21.28,22.98,25.55v15.25c-.02-.23-.21-.88-1.7-1.63-3.41-1.7-6.81-2.55-6.81-2.55l-9.29,59.95c-.05.33-.15.65-.3.96-.36.76-1.14,2.36-1.82,3.69-.32.62-.84,1.14-1.47,1.46-6.63,3.39-14.35,8.03-14.35,8.03,0,0-2.14.41-3.41,0-1.14-.36-2.55-.85-2.55-1.7v-.85s1.22-30.9,1.7-48.54c.56-20.28.85-51.94.85-51.94v-.03ZM285.43,423.25l.85,2.55,8.25,59.47c.17,1.16.9,2.14,1.96,2.63l18.74,8.59v-65.56l-29.81-7.66v-.02Z"/>
    <path class="cls-23" d="M236.89,425.8l.85,82.16c0,.29.05.58.14.85.24.73.79,2.22,1.58,2.98,1.28,1.26,2.46,1.66,4.26,1.7,1.37.03,2.11-.41,3.41-.85,2.11-.71,3.16-1.47,5.11-2.55,1.7-.94,2.63-1.49,4.26-2.55,2.78-1.82,4.71-2.52,6.81-5.11,1.87-2.31,3.41-6.81,3.41-6.81l10.78-72.92c.15-1.05,1.22-1.7,2.22-1.37l5.73,1.92,29.81,7.66-8.45-10.14s-.08-.09-.12-.15c-1.16-1.55-19.63-26.45-36.56-49.5,0,0-9.36-2.37-17.88-8.33.85,6.81,8.51,23.84,8.51,23.84l-16.17-11.92c-4.26-3.41-5.96-4.26-10.22-7.66.85,11.92,2.52,32.9,2.55,43.43v15.32h-.02Z"/>
    <path class="cls-20" d="M237.74,152.46c-1.7,5.96-8.51,15.32-8.51,15.32l10.22,10.22s6.26,6.81,7.66,14.47c.85,9.36,0,13.62-3.41,22.13-3.07,5.29-6.81,8.51-11.07,11.07-3.41,2.04-32.49,3.41-32.49,3.41l-.71,22.98s-.36,15.25-2.55,24.7c-2.45,10.52-9.59,24.34-12.85,30.28-.67,1.23.32,2.69,1.69,2.45,1.67-.29,3.66-.7,5.18-1.23,2.81-.99,6.81-3.41,6.81-3.41,0,0-1.43,2.77-3.3,6.81,0,0,.08,10.81,5,13.62,4.26.85,11.22,0,11.22,0,.87-1.19,1.67-2.33,2.4-3.41,0,0,7.66-14.47,11.92-20.43,0,10.22.47,16.89,5.96,25.55,1.7-18.73,8.51-45.98,16.17-57.05,7.66,11.92,12.45,16.17,12.45,16.17,3.15-5.43,5.44-9.36,5.44-9.36v-86.86s-1.7-4.26-4.26-5.96-4.26-1.7-5.96-1.7c.85-1.7,2.55-2.55,5.96-11.07,3.41-8.51,4.5-11.77,4.26-19.58-.23-7.59-1.7-14.47-5.11-18.73-3.41-4.26-5.61-8.53-11.07-8.51-2.42,0-4.06.2-5.96,1.7-2.98,2.34-2.55,7.66-2.55,9.36s-.85,11.07-2.55,17.03v.02Z"/>
    <path class="cls-19" d="M178.97,158.42c2.98,7.48,12.77,16.17,12.77,16.17,0,0,4.93-3.79,8.09-5.11,3.16-1.34,8.09-1.7,8.09-1.7l-2.92-2.19c-.32-.24-.59-.53-.81-.87l-10.75-16.52-8.63-17.27c-.46-.9-1.37-1.46-2.37-1.46-1.06,0-2.04.64-2.42,1.64-1.19,3.13-3.62,10.05-3.62,14.53,0,5.96.67,8.04,2.55,12.77h.02Z"/>
    <path class="cls-19" d="M186.65,332.13c-1.4,5.56-2.3,8.74-2.55,14.47-.12,2.58.11,5.9.36,8.51,0,0,16.8-17.12,26.19-29.81,0,0-6.96.85-11.22,0-4.91-2.83-5-13.62-5-13.62-2.63,5.7-6.14,13.92-7.78,20.43v.02Z"/>
    <path class="cls-22" d="M229.22,167.79h-21.28s-4.93.38-8.09,1.7c-3.16,1.34-8.09,5.11-8.09,5.11l-3.1,6.2c-.2.4-.47.76-.81,1.05l-18.93,16.45c-.11.09-.2.18-.29.29-.47.56-2.07,2.49-2.42,4.1-.68,3.09.15,5.61,2.55,7.66,0,5.96.93,9.15,4.26,13.62,2.11,2.83,3.53,4.64,6.81,5.96,3.63,1.46,6.23.88,10.02.05l.2-.05c4.36-.97,10.22-5.11,10.22-5.11l-.14,4.26s29.08-1.37,32.49-3.41c4.26-2.55,8-5.79,11.07-11.07,3.41-8.51,4.26-12.77,3.41-22.13-1.4-7.66-7.66-14.47-7.66-14.47,0,0-10.22-10.22-10.22-10.22Z"/>
    <path class="cls-26" d="M236.89,410.48c-.03-10.53-1.7-31.51-2.55-43.43,0,0-20.43-10.22-21.28-45.13-.73,1.08-1.54,2.22-2.4,3.41-9.38,12.69-26.19,29.81-26.19,29.81.23,2.45.49,4.26.49,4.26,0,0,5.96,11.92,11.92,17.88,1.17-3.89,1.98-7.25,2.75-10.47.93-3.85,1.81-7.51,3.21-11.66.23.82.49,1.78.78,2.84,1.81,6.69,4.82,17.76,10.29,26.97,6.87,11.54,15.32,21.28,22.98,25.55l.02-.02Z"/>
    <path class="cls-28" d="M179.83,229.94c-3.28-1.32-6.63-6.54-8.74-9.36,0,0,14.47-6.14,29.81-9.36,6.07-1.28,12.77-2.4,21.28-1.7,8.51.7,21.53,5.11,21.53,5.11-3.07,5.29-6.81,8.51-11.07,11.07-3.41,2.04-32.49,3.41-32.49,3.41l.14-4.26s-5.87,4.13-10.22,5.11l-.2.05c-3.79.84-6.38,1.41-10.02-.05h-.03Z"/>
    <path class="cls-3" d="M197.72,392.59s-5.29-8-7.66-13.62c-3.09-7.28-5.11-19.58-5.11-19.58,0,0,5.96,11.92,11.92,17.88,1.17-3.89,1.98-7.25,2.75-10.47.93-3.85,1.81-7.51,3.21-11.66.23.82.49,1.78.78,2.84,1.81,6.69,4.82,17.76,10.29,26.97,6.87,11.54,15.32,21.28,22.98,25.55v15.25c-.02-.23-.21-.88-1.7-1.63-3.41-1.7-6.81-2.55-6.81-2.55l-9.29,59.95c-.05.33-.15.65-.3.96-.36.76-1.14,2.36-1.82,3.69-.32.62-.84,1.14-1.47,1.46-6.63,3.39-14.35,8.03-14.35,8.03,0,0-2.14.41-3.41,0-1.14-.36-2.55-.85-2.55-1.7v-.85s1.22-30.9,1.7-48.54c.56-20.28.85-51.94.85-51.94v-.03Z"/>
    <path class="cls-19" d="M178.97,158.42c2.98,7.48,12.77,16.17,12.77,16.17,0,0,4.93-3.79,8.09-5.11,3.16-1.34,8.09-1.7,8.09-1.7l-2.92-2.19c-.32-.24-.59-.53-.81-.87l-10.75-16.52-8.63-17.27c-.46-.9-1.37-1.46-2.37-1.46-1.06,0-2.04.64-2.42,1.64-1.19,3.13-3.62,10.05-3.62,14.53,0,5.96.67,8.04,2.55,12.77h.02Z"/>
    <path class="cls-1" d="M285.43,423.25l.85,2.55,8.25,59.47c.17,1.16.9,2.14,1.96,2.63l18.74,8.59v-60.26l-5.85-7.02-23.96-5.96h0Z"/>
    <path class="cls-1" d="M243.84,516.92h-.21c-2.77-.08-4.73-.88-6.57-2.69-.97-.97-1.79-2.43-2.42-4.36-.2-.59-.29-1.22-.3-1.88l-.84-80.93c-.81-.4-1.63-.74-2.37-1.03l-8.68,56c-.11.68-.3,1.32-.61,1.93-.38.78-1.17,2.39-1.85,3.74-.65,1.26-1.67,2.28-2.95,2.93-6.45,3.3-14.08,7.86-14.15,7.92l-.52.32-.59.11c-.7.14-3.15.52-5.08-.11-1.47-.47-4.91-1.58-4.93-4.94v-.99l3.41.14-3.41-.14c0-.3,1.22-31.09,1.7-48.49.5-17.98.79-45.25.84-50.86-1.47-2.28-5.37-8.51-7.39-13.29-3.21-7.57-5.26-19.93-5.35-20.45l3.36-.47-3.36.47s-.26-1.88-.5-4.41c-.35-3.68-.49-6.7-.38-9,.26-5.62,1.08-8.89,2.33-13.86l.32-1.29c1.54-6.14,4.64-13.64,7.22-19.35-1.2.33-2.63.64-4.27.91-1.93.32-3.82-.46-4.94-2.04-1.14-1.6-1.26-3.68-.32-5.41,2.98-5.44,10.14-19.21,12.51-29.41,2.08-8.98,2.46-23.85,2.46-24l.65-21.02c-1.85.96-3.95,1.85-5.88,2.28l-.2.05-.76-3.42.76,3.42c-3.98.88-7.42,1.64-12.04-.21-4.27-1.72-6.22-4.33-8.27-7.08-3.47-4.64-4.74-8.25-4.91-14.2-2.46-2.71-3.33-6.08-2.49-9.85.49-2.22,2.19-4.45,3.16-5.58.2-.23.41-.44.64-.64l18.93-16.45,1.98-3.94c-3.16-3.09-9.35-9.61-11.75-15.67-2.02-5.09-2.8-7.63-2.8-14.03,0-4.94,2.4-11.98,3.83-15.75.87-2.3,3.12-3.83,5.59-3.83,2.31,0,4.38,1.28,5.41,3.34l8.54,17.1,10.64,16.36,2.02,1.5h18.42c3.53-5.18,6.16-10,6.98-12.86,1.61-5.65,2.42-14.64,2.42-16.1v-.52c-.06-2.51-.17-8.36,3.85-11.52,2.84-2.2,5.44-2.4,8.07-2.4h.03c7.01,0,11.49,6,14.18,9.59l.32.44c3.86,5.79,4.82,12.39,5.06,20.52.24,8.33-.9,11.93-4.5,20.95-1.4,3.5-2.55,5.82-3.5,7.43.7.3,1.43.71,2.22,1.23,3.27,2.17,5.34,7.14,5.69,8.03l-3.31.78,3.31-.78.09,70.6h-6.81v-69.12c-.64-1.35-1.75-3.18-2.74-3.83-1.7-1.12-2.58-1.12-4.07-1.12h-5.52l2.46-4.93c.36-.73.78-1.28,1.2-1.87.93-1.26,2.33-3.15,4.64-8.94,3.22-8.06,4.24-10.96,4.01-18.21-.21-6.92-.94-12.43-3.86-16.87l-.15-.21c-2.17-2.9-5.14-6.87-8.73-6.87h-.02c-2.17,0-2.86.18-3.86.97-1.37,1.08-1.29,4.82-1.26,6.05v.64c0,1.76-.82,11.48-2.68,17.97-1.4,4.89-5.61,11.43-8,14.91-1.25,1.81-3.31,2.89-5.53,2.89h-19.41c-1.32.11-4.82.56-6.9,1.43-1.96.82-5.11,3.01-6.72,4.21l-2.75,5.49c-.4.81-.94,1.5-1.63,2.1l-18.93,16.45c-.87,1.02-1.52,2.13-1.63,2.57-.29,1.31-.17,2.31.43,3.22.81-.12,1.67-.24,2.51-.35,1.34-.17,3.56-.46,4.15-.71l3.03,6.1c-1.5.76-3.74,1.03-6.31,1.37-.35.05-.71.09-1.06.14.29,3.51,1.23,5.7,3.48,8.74,1.98,2.66,2.95,3.88,5.35,4.83,2.66,1.06,4.45.67,8.01-.12l.2-.05.74,3.33-.74-3.33c3.01-.67,7.51-3.53,9-4.56l5.58-3.94-1.06,34.07c0,.61-.4,15.69-2.65,25.36-2.13,9.14-7.48,20.37-11.4,27.83.36-.11.7-.2.99-.3,2.04-.71,5.15-2.49,6.19-3.12l10.28-6.19-5.49,10.67s-1.41,2.77-3.22,6.69c-2.58,5.59-6,13.57-7.57,19.84l-.32,1.29c-1.19,4.73-1.9,7.57-2.13,12.51-.09,1.95.03,4.73.35,8.04.15,1.57.3,2.86.4,3.56.85,1.64,3.71,7.02,7.07,11.71.35-1.38.67-2.72.99-4.03.96-3.95,1.85-7.66,3.28-11.98l3.48-10.46,3.03,10.6c.23.82.49,1.76.78,2.83,1.78,6.54,4.71,17.38,9.94,26.18,5.14,8.62,10.99,15.9,16.48,20.58-.4-9.21-1.34-22.01-2.08-31.92-.2-2.63-.38-5.05-.52-7.11l6.8-.49c.15,2.05.32,4.47.52,7.08.94,12.78,2.25,30.28,2.28,39.13h-3.39,3.39l-.03,15.29h.03l.85,82.1c.29.85.59,1.4.71,1.54.5.49.78.67,1.93.7.35.02.52-.05,1.29-.33.29-.11.59-.23.93-.33,1.29-.44,2.07-.88,3.25-1.57.4-.23.82-.47,1.31-.74,1.67-.93,2.54-1.44,4.04-2.43.74-.49,1.43-.9,2.07-1.28,1.67-1,2.78-1.66,3.97-3.13,1.02-1.25,2.16-3.91,2.72-5.49l10.73-72.6c.23-1.5,1.09-2.81,2.37-3.6,1.29-.79,2.86-.97,4.29-.5l5.61,1.87,24.9,6.2,7.36,8.82v66.8l-23.56-10.81c-2.13-.97-3.59-2.93-3.91-5.26l-8.21-59.15-.21-.64-2.19-.73-10.52,71.22-.11.29c-.18.52-1.79,5.15-3.98,7.86-1.95,2.4-3.8,3.51-5.75,4.68-.58.35-1.19.71-1.84,1.14-1.64,1.06-2.65,1.67-4.47,2.68-.44.24-.84.47-1.2.68-1.31.74-2.52,1.46-4.45,2.11-.26.09-.5.18-.71.26-.91.35-2.05.78-3.65.78v.05ZM195.16,493.93h3.41-3.41ZM198.6,492.34s.12.03.15.05c.18.03.7.03,1.2-.03,1.95-1.16,8.3-4.88,13.97-7.78.67-1.29,1.43-2.86,1.79-3.6l9.85-63.63,3.62.9c.11.03,1.93.49,4.29,1.4v-7.24c-7.45-4.79-15.55-14.03-22.51-25.74-3.63-6.11-6.22-12.97-8.09-18.88-.79,3.24-1.6,6.57-2.77,10.46l-1.64,5.46-4.03-4.03c-.23-.23-.44-.44-.65-.68,2.43,5.14,6.72,11.66,6.76,11.72l.58.87v1.03c0,.32-.3,31.92-.87,52-.44,15.79-1.47,42.53-1.67,47.7l.02.03ZM290.01,427.9l7.9,56.9,13.91,6.38v-53.71l-4.35-5.21-17.47-4.35v-.02ZM234.06,427.38h0ZM236.36,425.77l-.5.05.5-.05h0ZM236.66,425.77l.23.05-.23-.05ZM236.57,425.76h0ZM236.89,425.73h0ZM236.41,425.73h0ZM168.76,210.37h0ZM182.58,134.05c-1.73,4.86-2.75,9.11-2.75,11.58,0,5.44.56,7.1,2.31,11.51,1.76,4.41,6.69,9.87,9.88,13.03,1.84-1.29,4.41-2.96,6.49-3.83.68-.29,1.43-.53,2.17-.76l-10.29-15.87-7.83-15.66h.02Z"/>
    <path class="cls-3" d="M261.59,282.74v-22.98h6.81v10.17c0,.59-.15,1.17-.46,1.69l-6.37,11.14.02-.02Z"/>
    <path class="cls-2" d="M204.66,192.79c-.09-.09-.12-.23-.09-.35,1.64-6,8.28-6.76,11.55-6.76,5.99,0,16.27,3.1,16.27,3.1,0,0-7.18,5.43-12.39,7.74-5.53,2.28-12.37-.67-15.34-3.72Z"/>
    <path class="cls-19" d="M234.34,367.05c4.26,3.41,5.96,4.26,10.22,7.66l16.17,11.92s-7.66-17.03-8.51-23.84c8.51,5.96,17.88,8.33,17.88,8.33-13.82-18.8-26.6-36.36-28.11-38.99-1.7-2.98-1.7-6.81-1.7-6.81,0,0,0-5.11,1.7-8.51,1.14-2.3,11.13-19.56,17.56-30.66,0,0-4.79-4.26-12.45-16.17-7.66,11.07-14.47,38.32-16.17,57.05-5.49-8.65-5.96-15.32-5.96-25.55-4.26,5.96-11.92,20.43-11.92,20.43.85,34.92,21.28,45.13,21.28,45.13l.02.02Z"/>
    <line class="cls-16" x1="285.19" y1="320.21" x2="353.32" y2="320.21"/>
    <line class="cls-16" x1="285.19" y1="330.43" x2="353.32" y2="330.43"/>
    <g>
      <path class="cls-23" d="M400.38,425.73v-15.25c.03-10.53,1.7-31.51,2.55-43.43-4.26,3.41-5.96,4.26-10.22,7.66l-16.17,11.92s7.66-17.03,8.51-23.84c-8.51,5.96-17.88,8.33-17.88,8.33-16.93,23.05-35.4,47.95-36.56,49.5-.05.05-.08.11-.12.15l-8.45,10.14,29.81-7.66,5.73-1.92c1-.33,2.07.32,2.22,1.37l10.78,72.92s1.54,4.5,3.41,6.81c2.1,2.58,4.03,3.3,6.81,5.11,1.63,1.06,2.55,1.61,4.26,2.55,1.95,1.08,2.99,1.84,5.11,2.55,1.29.44,2.04.88,3.41.85,1.79-.05,2.98-.44,4.26-1.7.78-.78,1.34-2.27,1.58-2.98.09-.27.14-.56.14-.85l.85-82.16v-.08h-.02Z"/>
      <path class="cls-20" d="M396.96,135.42c0-1.7.43-7.02-2.55-9.36-1.9-1.5-3.54-1.7-5.96-1.7-5.46-.02-7.66,4.26-11.07,8.51-3.41,4.26-4.88,11.16-5.11,18.73-.23,7.83.85,11.07,4.26,19.58,3.41,8.51,5.11,9.36,5.96,11.07-1.7,0-3.41,0-5.96,1.7s-4.26,5.96-4.26,5.96v86.86s2.3,3.94,5.44,9.36c0,0,4.79-4.26,12.45-16.17,7.66,11.07,14.47,38.32,16.17,57.05,5.49-8.65,5.96-15.32,5.96-25.55,4.26,5.96,11.92,20.43,11.92,20.43.73,1.08,1.54,2.22,2.4,3.41,0,0,6.96.85,11.22,0,4.91-2.83,5-13.62,5-13.62-1.87-4.04-3.3-6.81-3.3-6.81,0,0,4.01,2.42,6.81,3.41,1.52.53,3.51.94,5.18,1.23,1.38.23,2.36-1.23,1.69-2.45-3.25-5.94-10.4-19.76-12.85-30.28-2.19-9.44-2.55-24.7-2.55-24.7l-.71-22.98s-29.08-1.37-32.49-3.41c-4.26-2.55-8-5.79-11.07-11.07-3.41-8.51-4.26-12.77-3.41-22.13,1.4-7.66,7.66-14.47,7.66-14.47l10.22-10.22s-6.81-9.36-8.51-15.32c-1.7-5.96-2.55-15.32-2.55-17.03v-.02Z"/>
      <path class="cls-19" d="M442.84,311.7s-.08,10.81-5,13.62c-4.26.85-11.22,0-11.22,0,9.38,12.69,26.19,29.81,26.19,29.81.26-2.61.49-5.93.36-8.51-.26-5.73-1.16-8.91-2.55-14.47-1.63-6.52-5.14-14.75-7.78-20.43v-.02Z"/>
      <path class="cls-22" d="M397.82,178s-6.26,6.81-7.66,14.47c-.85,9.36,0,13.62,3.41,22.13,3.07,5.29,6.81,8.51,11.07,11.07,3.41,2.04,32.49,3.41,32.49,3.41l-.14-4.26s5.87,4.13,10.22,5.11l.2.05c3.79.84,6.38,1.41,10.02-.05,3.28-1.32,4.7-3.13,6.81-5.96,3.33-4.47,4.26-7.66,4.26-13.62,2.4-2.05,3.24-4.59,2.55-7.66-.35-1.61-1.95-3.54-2.42-4.1-.09-.11-.18-.2-.29-.29l-18.93-16.45c-.33-.29-.61-.65-.81-1.05l-3.1-6.2s-4.93-3.79-8.09-5.11c-3.16-1.34-8.09-1.7-8.09-1.7h-21.28l-10.22,10.22Z"/>
      <path class="cls-26" d="M423.37,384.92c5.47-9.2,8.47-20.26,10.29-26.97.29-1.06.55-2.02.78-2.84,1.38,4.17,2.28,7.83,3.21,11.66.78,3.22,1.6,6.58,2.75,10.47,5.96-5.96,11.92-17.88,11.92-17.88,0,0,.26-1.82.49-4.26,0,0-16.8-17.12-26.19-29.81-.87-1.19-1.67-2.33-2.4-3.41-.85,34.92-21.28,45.13-21.28,45.13-.85,11.92-2.52,32.9-2.55,43.43,7.66-4.26,16.13-14.02,22.98-25.55l.02.02Z"/>
      <path class="cls-28" d="M447.4,229.99l-.2-.05c-4.36-.97-10.22-5.11-10.22-5.11l.14,4.26s-29.08-1.37-32.49-3.41c-4.26-2.55-8-5.79-11.07-11.07,0,0,13-4.41,21.53-5.11,8.51-.7,15.22.43,21.28,1.7,15.32,3.22,29.81,9.36,29.81,9.36-2.11,2.83-5.47,8.04-8.74,9.36-3.63,1.46-6.23.88-10.02.05h-.03Z"/>
      <path class="cls-3" d="M440.39,444.54c.49,17.63,1.7,48.54,1.7,48.54v.85c0,.85-1.41,1.34-2.55,1.7-1.26.41-3.41,0-3.41,0,0,0-7.74-4.64-14.35-8.03-.62-.32-1.16-.82-1.47-1.46-.68-1.34-1.46-2.92-1.82-3.69-.15-.3-.24-.62-.3-.96l-9.29-59.95s-3.41.85-6.81,2.55c-1.49.74-1.69,1.4-1.7,1.63v-15.25c7.66-4.26,16.13-14.02,22.98-25.55,5.47-9.2,8.47-20.26,10.29-26.97.29-1.06.55-2.02.78-2.84,1.38,4.17,2.28,7.83,3.21,11.66.78,3.22,1.6,6.58,2.75,10.47,5.96-5.96,11.92-17.88,11.92-17.88,0,0-2.02,12.31-5.11,19.58-2.39,5.62-7.66,13.62-7.66,13.62,0,0,.29,31.66.85,51.94v.03Z"/>
      <path class="cls-19" d="M460.84,145.65c0-4.5-2.42-11.4-3.62-14.53-.38-1-1.34-1.64-2.42-1.64-1,0-1.92.56-2.37,1.46l-8.63,17.27-10.75,16.52c-.21.33-.49.62-.81.87l-2.92,2.19s4.93.38,8.09,1.7c3.16,1.34,8.09,5.11,8.09,5.11,0,0,9.79-8.7,12.77-16.17,1.88-4.73,2.55-6.81,2.55-12.77h.02Z"/>
      <path class="cls-1" d="M327.89,429.21l-5.85,7.02v60.26l18.74-8.59c1.06-.49,1.79-1.47,1.96-2.63l8.25-59.47.85-2.55-23.96,5.96h0Z"/>
      <path class="cls-1" d="M389.77,516.14c-.23-.08-.46-.17-.71-.26-1.93-.65-3.16-1.37-4.45-2.11-.36-.21-.76-.44-1.2-.68-1.82-1-2.83-1.61-4.47-2.68-.65-.43-1.26-.79-1.84-1.14-1.96-1.17-3.8-2.28-5.75-4.68-2.2-2.71-3.82-7.34-3.98-7.86l-.11-.29-10.52-71.22-2.19.73-.21.64-8.21,59.15c-.32,2.31-1.78,4.27-3.91,5.26l-23.56,10.81v-66.8l7.36-8.82,24.9-6.2,5.61-1.87c1.44-.49,2.99-.3,4.29.5,1.29.79,2.16,2.11,2.37,3.6l10.73,72.6c.56,1.58,1.72,4.24,2.72,5.49,1.19,1.46,2.3,2.13,3.97,3.13.64.38,1.32.79,2.07,1.28,1.49.97,2.37,1.5,4.04,2.43.49.26.91.52,1.31.74,1.17.68,1.95,1.12,3.25,1.57.33.12.64.23.93.33.78.29.93.35,1.29.33,1.16-.03,1.43-.21,1.93-.7.12-.15.43-.68.71-1.54l.85-82.1h.03l-.03-15.29h3.39-3.39c.03-8.83,1.32-26.34,2.28-39.13.2-2.63.38-5.03.52-7.08l6.8.49c-.15,2.07-.32,4.48-.52,7.11-.73,9.93-1.69,22.71-2.08,31.92,5.49-4.68,11.36-11.96,16.48-20.58,5.24-8.8,8.18-19.64,9.94-26.18.29-1.06.55-2.01.78-2.83l3.03-10.6,3.48,10.46c1.44,4.32,2.34,8.03,3.28,11.98.32,1.32.64,2.65.99,4.03,3.36-4.68,6.22-10.06,7.07-11.71.09-.7.24-1.99.4-3.56.32-3.31.44-6.1.35-8.04-.23-4.93-.94-7.78-2.13-12.51l-.32-1.29c-1.57-6.25-4.97-14.24-7.57-19.84-1.81-3.92-3.22-6.66-3.22-6.69l-5.49-10.67,10.28,6.19c1.03.62,4.15,2.39,6.19,3.12.29.11.62.2.99.3-3.91-7.46-9.27-18.68-11.4-27.83-2.25-9.67-2.63-24.75-2.65-25.36l-1.06-34.07,5.58,3.94c1.47,1.05,5.99,3.89,9,4.56l-.74,3.33.74-3.33.2.05c3.56.79,5.35,1.19,8.01.12,2.39-.96,3.37-2.17,5.35-4.83,2.27-3.03,3.19-5.23,3.48-8.74-.35-.05-.71-.09-1.06-.14-2.58-.33-4.8-.61-6.31-1.37l3.03-6.1c.59.26,2.83.55,4.15.71.84.11,1.69.21,2.51.35.61-.91.73-1.92.43-3.22-.09-.44-.76-1.54-1.63-2.57l-18.93-16.45c-.67-.59-1.22-1.29-1.63-2.1l-2.75-5.49c-1.63-1.2-4.76-3.39-6.72-4.21-2.08-.88-5.58-1.32-6.9-1.43h-19.41c-2.22,0-4.29-1.08-5.53-2.89-2.39-3.47-6.6-10.02-8-14.91-1.85-6.49-2.69-16.2-2.69-17.97v-.64c.03-1.23.11-4.97-1.26-6.05-1-.79-1.69-.96-3.86-.97h-.02c-3.59,0-6.55,3.97-8.73,6.87l-.15.21c-2.92,4.44-3.66,9.96-3.86,16.87-.21,7.27.79,10.15,4.01,18.21,2.31,5.79,3.71,7.68,4.64,8.94.44.59.85,1.14,1.2,1.87l2.46,4.93h-5.52c-1.47,0-2.37,0-4.07,1.12-.99.67-2.11,2.48-2.74,3.83v69.12h-6.81l.09-70.6,3.31.78-3.31-.78c.35-.88,2.42-5.84,5.69-8.03.79-.52,1.52-.93,2.22-1.23-.94-1.63-2.1-3.94-3.5-7.43-3.6-9.01-4.74-12.63-4.5-20.95.24-8.13,1.2-14.73,5.06-20.52l.32-.44c2.71-3.63,7.19-9.64,14.18-9.64h.03c2.63,0,5.23.2,8.06,2.43,4.03,3.18,3.91,9.03,3.86,11.52v.52c0,1.46.81,10.44,2.42,16.1.82,2.84,3.45,7.68,6.98,12.86h18.42l2.02-1.5,10.64-16.36,8.54-17.1c1.03-2.07,3.1-3.34,5.41-3.34,2.48,0,4.73,1.54,5.59,3.83,1.43,3.77,3.83,10.81,3.83,15.75,0,6.4-.76,8.94-2.8,14.03-2.42,6.07-8.59,12.59-11.75,15.67l1.98,3.94,18.93,16.45c.23.2.44.41.64.64.97,1.12,2.66,3.36,3.16,5.58.84,3.77-.03,7.14-2.49,9.85-.17,5.96-1.46,9.56-4.91,14.2-2.05,2.77-4,5.37-8.27,7.08-4.62,1.85-8.06,1.09-12.04.21l.76-3.42-.76,3.42-.2-.05c-1.93-.43-4.01-1.32-5.88-2.28l.65,21.02c0,.15.38,15.02,2.46,24,2.37,10.22,9.55,23.97,12.51,29.41.94,1.73.82,3.8-.32,5.41-1.12,1.58-3.01,2.36-4.94,2.04-1.63-.27-3.06-.58-4.27-.91,2.58,5.72,5.69,13.21,7.22,19.35l.32,1.29c1.25,4.96,2.07,8.24,2.33,13.86.11,2.3-.02,5.32-.38,9-.24,2.52-.5,4.41-.5,4.41l-3.36-.47,3.36.47c-.09.52-2.14,12.88-5.35,20.45-2.02,4.79-5.91,11.01-7.39,13.29.06,5.61.33,32.88.84,50.86.49,17.41,1.69,48.19,1.7,48.49l-3.41.14,3.41-.14v.99c0,3.37-3.45,4.47-4.91,4.94-1.95.62-4.38.23-5.08.11l-.59-.11-.52-.32c-.08-.05-7.72-4.62-14.15-7.92-1.29-.65-2.31-1.67-2.95-2.93-.7-1.37-1.49-2.98-1.85-3.74-.29-.61-.5-1.25-.61-1.93l-8.68-56c-.74.29-1.55.64-2.37,1.03l-.84,80.93c0,.65-.11,1.29-.3,1.88-.62,1.93-1.44,3.39-2.42,4.36-1.84,1.81-3.8,2.61-6.57,2.69h-.21c-1.6,0-2.74-.43-3.65-.78v-.03ZM438.69,493.92h3.41-3.41ZM436.99,444.64c-.56-20.08-.85-51.7-.85-52v-1.03l.56-.87c.05-.08,4.33-6.58,6.76-11.72-.21.23-.44.46-.65.68l-4.03,4.03-1.64-5.46c-1.17-3.89-1.98-7.22-2.77-10.46-1.87,5.93-4.44,12.77-8.09,18.88-6.96,11.71-15.06,20.95-22.51,25.74v7.24c2.36-.91,4.18-1.37,4.29-1.4l3.62-.9,9.85,63.63c.36.74,1.12,2.31,1.79,3.6,5.67,2.9,12.02,6.63,13.97,7.78.5.06,1.02.06,1.2.03.05,0,.09-.03.15-.05-.2-5.17-1.23-31.91-1.67-47.7l.02-.03ZM329.79,432.25l-4.35,5.21v53.71l13.91-6.38,7.9-56.9-17.47,4.35v.02ZM403.2,427.38h0ZM400.89,425.77l.5.05-.5-.05h0ZM400.38,425.8l.23-.05-.23.05ZM400.69,425.76h0ZM400.38,425.73h0ZM400.86,425.73h0ZM468.5,210.37h0ZM446.86,149.73l-10.29,15.87c.76.21,1.49.46,2.17.76,2.08.87,4.65,2.54,6.49,3.83,3.21-3.16,8.13-8.6,9.88-13.03,1.76-4.41,2.31-6.07,2.31-11.51,0-2.48-1.02-6.72-2.75-11.58l-7.83,15.66h.02Z"/>
      <path class="cls-2" d="M417.26,196.5c-5.21-2.33-12.39-7.74-12.39-7.74,0,0,10.28-3.1,16.27-3.1,3.27,0,9.91.76,11.55,6.76.03.12,0,.26-.09.35-2.96,3.04-9.8,6-15.34,3.72h0Z"/>
      <path class="cls-19" d="M424.22,321.91s-7.66-14.47-11.92-20.43c0,10.22-.47,16.89-5.96,25.55-1.7-18.73-8.51-45.98-16.17-57.05-7.66,11.92-12.45,16.17-12.45,16.17,6.43,11.1,16.42,28.37,17.56,30.66,1.7,3.41,1.7,8.51,1.7,8.51,0,0,0,3.83-1.7,6.81-1.5,2.63-14.29,20.19-28.11,38.99,0,0,9.36-2.37,17.88-8.33-.85,6.81-8.51,23.84-8.51,23.84l16.17-11.92c4.26-3.41,5.96-4.26,10.22-7.66,0,0,20.43-10.22,21.28-45.13l.02-.02Z"/>
    </g>
    <path class="cls-3" d="M375.67,282.74v-22.98h-6.81v10.17c0,.59.15,1.17.46,1.69l6.37,11.14-.02-.02Z"/>
  </g>
</svg>